<?xml version="1.0" encoding="utf-8"?>
<!-- Generator: Adobe Illustrator 28.0.0, SVG Export Plug-In . SVG Version: 6.00 Build 0)  -->
<svg version="1.1" id="Layer_1" xmlns="http://www.w3.org/2000/svg" xmlns:xlink="http://www.w3.org/1999/xlink" x="0px" y="0px"
	 viewBox="0 0 140 37.6" style="enable-background:new 0 0 140 37.6;" xml:space="preserve">
<style type="text/css">
	.st0{fill:#FFFFFF;}
	.st1{fill:#E31019;}
	.st2{fill:#C31718;}
	.st3{fill:#F7A708;}
	.st4{fill:#FFCD00;}
	.st5{fill:#712784;}
	.st6{fill:#5C2570;}
	.st7{fill:#0076AF;}
	.st8{fill:#0E91CF;}
</style>
<g>
	<g>
		<g>
			<path class="st0" d="M45.9,18.8c0-1.6,0.3-3.1,0.8-4.5c0.6-1.4,1.3-2.5,2.3-3.5c1-1,2.2-1.7,3.5-2.3c1.3-0.5,2.7-0.8,4.3-0.8
				c2.2,0,4.1,0.5,5.8,1.5c1.7,1,3,2.5,3.9,4.4l-2.5,0.9c-0.5-1-1.1-1.8-1.9-2.4c-0.8-0.6-1.6-1-2.5-1.3c-0.9-0.3-1.8-0.4-2.8-0.4
				c-1.5,0-2.8,0.3-4,1c-1.2,0.7-2.1,1.7-2.8,2.9c-0.7,1.3-1,2.8-1,4.5c0,1.7,0.3,3.2,1,4.5c0.7,1.3,1.6,2.2,2.8,2.9
				c1.2,0.7,2.5,1,4,1c1,0,1.9-0.2,2.8-0.5c0.9-0.3,1.8-0.8,2.6-1.5c0.8-0.7,1.5-1.6,2-2.7l2.5,0.9c-0.9,2.2-2.3,3.8-4,4.9
				c-1.7,1.1-3.7,1.6-6,1.6c-1.5,0-3-0.3-4.3-0.8c-1.3-0.5-2.5-1.3-3.5-2.3c-1-1-1.8-2.2-2.3-3.5C46.2,21.9,45.9,20.4,45.9,18.8z"/>
			<path class="st0" d="M69.6,14.1h2.7l0.2,2.1c0.4-0.5,0.9-1,1.5-1.4c0.6-0.4,1.2-0.6,1.9-0.8c0.7-0.1,1.4-0.1,2.1,0v2.8
				c-0.7-0.2-1.3-0.2-2-0.1c-0.6,0.1-1.2,0.4-1.7,0.8c-0.5,0.4-0.9,0.9-1.2,1.6c-0.3,0.7-0.5,1.5-0.5,2.4v8.1h-2.9V14.1z"/>
			<path class="st0" d="M86.8,29.9c-1.5,0-2.8-0.3-4-1c-1.2-0.7-2.1-1.6-2.8-2.8c-0.7-1.2-1-2.6-1-4.2c0-1.6,0.3-3.1,1-4.3
				c0.7-1.2,1.6-2.1,2.8-2.8c1.2-0.7,2.5-1,4-1s2.8,0.3,4,1c1.2,0.7,2.1,1.6,2.8,2.8c0.7,1.2,1,2.6,1,4.2c0,1.6-0.3,3.1-1,4.3
				c-0.7,1.2-1.6,2.1-2.8,2.8C89.6,29.6,88.3,29.9,86.8,29.9z M86.7,27.2c0.8,0,1.6-0.2,2.3-0.6c0.7-0.4,1.3-1,1.8-1.8
				c0.5-0.8,0.7-1.8,0.7-3c0-1.2-0.2-2.2-0.7-3c-0.4-0.8-1-1.4-1.8-1.7c-0.7-0.4-1.5-0.6-2.3-0.6c-0.8,0-1.6,0.2-2.3,0.6
				c-0.7,0.4-1.3,1-1.7,1.8c-0.4,0.8-0.7,1.8-0.7,3c0,1.2,0.2,2.2,0.6,3c0.4,0.8,1,1.4,1.7,1.7S85.9,27.2,86.7,27.2z"/>
			<path class="st0" d="M97.7,14.1h2.7l0.2,1.8c0.5-0.6,1.1-1.1,1.9-1.5c0.8-0.4,1.6-0.5,2.6-0.5c1.2,0,2.2,0.3,3.1,0.8
				c0.9,0.5,1.6,1.3,2.1,2.3c0.5,1,0.7,2.2,0.7,3.7v9H108v-8.7c0-1.5-0.3-2.6-0.9-3.3c-0.6-0.8-1.5-1.1-2.7-1.1
				c-1.2,0-2.1,0.4-2.8,1.2c-0.7,0.8-1,1.9-1,3.4v8.5h-2.9V14.1z"/>
			<path class="st0" d="M121.5,29.9c-1.5,0-2.8-0.3-4-1c-1.2-0.7-2.1-1.7-2.7-2.9c-0.7-1.2-1-2.6-1-4.2c0-1.5,0.3-2.9,1-4
				c0.6-1.2,1.5-2.1,2.7-2.8c1.1-0.7,2.4-1,3.8-1c1.5,0,2.7,0.3,3.9,0.9c1.1,0.6,2,1.5,2.6,2.6c0.6,1.1,0.9,2.4,0.9,3.9
				c0,0.2,0,0.5,0,0.8c0,0.3-0.1,0.5-0.1,0.9H117c0.1,0.8,0.3,1.6,0.7,2.2c0.4,0.6,0.9,1.1,1.6,1.5c0.6,0.4,1.4,0.5,2.2,0.5
				c1,0,1.9-0.2,2.7-0.6c0.8-0.4,1.3-0.9,1.6-1.6l2.6,0.9c-0.6,1.3-1.5,2.3-2.7,3C124.4,29.6,123,29.9,121.5,29.9z M125.4,20.5
				c0-0.7-0.2-1.4-0.6-2c-0.4-0.6-0.9-1.1-1.5-1.4c-0.6-0.3-1.3-0.5-2.1-0.5c-0.7,0-1.4,0.2-1.9,0.5c-0.6,0.3-1.1,0.8-1.5,1.4
				c-0.4,0.6-0.7,1.3-0.8,2H125.4z"/>
			<path class="st0" d="M131.7,14.1h2.7l0.2,2.1c0.4-0.5,0.9-1,1.5-1.4c0.6-0.4,1.2-0.6,1.9-0.8c0.7-0.1,1.4-0.1,2.1,0v2.8
				c-0.7-0.2-1.3-0.2-2-0.1c-0.6,0.1-1.2,0.4-1.7,0.8c-0.5,0.4-0.9,0.9-1.2,1.6c-0.3,0.7-0.5,1.5-0.5,2.4v8.1h-2.9V14.1z"/>
		</g>
	</g>
	<g>
		<path class="st1" d="M32.1,5.5c-0.3-0.3-0.6-0.5-1-0.7L20,0.2C19.6,0.1,19.2,0,18.8,0v18.8L32.1,5.5z"/>
		<path class="st2" d="M18.8,18.8h18.8c0-0.4-0.1-0.8-0.2-1.2L32.8,6.5c-0.2-0.4-0.4-0.7-0.7-1L18.8,18.8L18.8,18.8z"/>
		<polygon class="st0" points="18.8,18.8 18.8,18.8 18.8,18.8 		"/>
		<polygon class="st0" points="18.8,18.8 18.8,18.8 18.8,18.8 		"/>
		<path class="st3" d="M18.8,18.8V0c-0.4,0-0.8,0.1-1.2,0.2L6.5,4.8C6.1,5,5.8,5.2,5.5,5.5L18.8,18.8L18.8,18.8z"/>
		<path class="st4" d="M5.5,5.5C5.2,5.8,5,6.1,4.8,6.5L0.2,17.6C0.1,18,0,18.4,0,18.8h18.8L5.5,5.5z"/>
		<path class="st5" d="M32.8,31.1L37.4,20c0.2-0.4,0.2-0.8,0.2-1.2H18.8l0,0l13.3,13.3C32.4,31.8,32.6,31.5,32.8,31.1z"/>
		<path class="st6" d="M18.8,37.6c0.4,0,0.8-0.1,1.2-0.2l11.1-4.6c0.4-0.2,0.7-0.4,1-0.7L18.8,18.8V37.6z"/>
		<path class="st7" d="M0,18.8c0,0.4,0.1,0.8,0.2,1.2l4.6,11.1c0.2,0.4,0.4,0.7,0.7,1l13.3-13.3H0z"/>
		<path class="st8" d="M18.8,18.8L5.5,32.1c0.3,0.3,0.6,0.5,1,0.7l11.1,4.6c0.4,0.2,0.8,0.2,1.2,0.2V18.8L18.8,18.8z"/>
	</g>
</g>
</svg>
